<?xml version="1.0" standalone="no"?><!DOCTYPE svg PUBLIC "-//W3C//DTD SVG 1.1//EN" "http://www.w3.org/Graphics/SVG/1.1/DTD/svg11.dtd"><svg t="1727260138583" class="icon" viewBox="0 0 1024 1024" version="1.1" xmlns="http://www.w3.org/2000/svg" p-id="24857" xmlns:xlink="http://www.w3.org/1999/xlink" width="48" height="48"><path d="M512 512m-512 0a512 512 0 1 0 1024 0 512 512 0 1 0-1024 0Z" fill="#624AFF" p-id="24858" data-spm-anchor-id="a313x.search_index.0.i15.4b053a81pnfYFU" class=""></path><path d="M489.1392 731.3408a28.9024 28.9024 0 1 1 28.9024 50.0736 28.9024 28.9024 0 0 1-28.9024-50.0736z m25.728-500.9152c95.36 1.4336 173.9776 79.1808 176.2816 174.5408a179.5072 179.5072 0 0 1-26.2912 98.2528c0 0.3072-0.3072 0.3072-0.3072 0.5888-1.4336 2.304-2.8928 4.352-4.3264 6.656l-2.0224 2.8672c-1.152 1.4592-2.0224 2.8928-3.1744 4.352-0.5888 0.8704-1.4592 1.7152-2.048 2.5856a80.9472 80.9472 0 0 1-4.608 5.7856 8.192 8.192 0 0 1-2.8928 2.6112l-3.1744 3.456-3.1744 3.1744c-1.7408 1.4592-3.1744 3.1744-4.9152 4.608-1.152 1.1776-2.304 2.3296-3.456 3.2-0.8704 0.8704-2.048 1.7408-2.8928 2.6112a91.0848 91.0848 0 0 0-5.504 4.3264c-1.152 1.152-2.304 2.0224-3.456 2.8928-1.4592 0.8704-2.6112 2.0224-4.0448 2.8928l-2.6112 1.7408c-4.352 2.8672-8.6784 5.4784-13.312 8.0896a133.6832 133.6832 0 0 0-66.7392 96.7936 23.1168 23.1168 0 0 1-45.6704-6.912 179.328 179.328 0 0 1 91.648-130.9184 132.6592 132.6592 0 0 0 66.432-123.392c-4.0448-65.6128-56.9088-119.3728-122.5216-124.288-77.7472-5.7856-143.0528 56.064-143.0528 132.6592v1.152a23.296 23.296 0 0 1-23.1168 23.7056 23.1168 23.1168 0 0 1-23.1168-22.8352v-2.048a179.2256 179.2256 0 0 1 182.0672-179.1488z" fill="#e6e6e6" p-id="24859" data-spm-anchor-id="a313x.search_index.0.i16.4b053a81pnfYFU" class="selected"></path></svg>