<?xml version="1.0" standalone="no"?><!DOCTYPE svg PUBLIC "-//W3C//DTD SVG 1.1//EN" "http://www.w3.org/Graphics/SVG/1.1/DTD/svg11.dtd"><svg t="1727260042536" class="icon" viewBox="0 0 1024 1024" version="1.1" xmlns="http://www.w3.org/2000/svg" p-id="23280" xmlns:xlink="http://www.w3.org/1999/xlink" width="48" height="48"><path d="M512 512m-512 0a512 512 0 1 0 1024 0 512 512 0 1 0-1024 0Z" fill="#624AFF" p-id="23281" data-spm-anchor-id="a313x.search_index.0.i11.4b053a81pnfYFU" class="selected"></path><path d="M274.432 432.128c-10.24 6.144-12.288 20.48-4.096 28.672l4.096 4.096 223.232 161.792c8.192 6.144 18.432 6.144 26.624 0l223.232-161.792c10.24-6.144 12.288-20.48 4.096-28.672l-4.096-4.096-223.232-161.792c-8.192-6.144-18.432-6.144-26.624 0l-223.232 161.792z m0 124.928l20.48-14.336 204.8 147.456c8.192 6.144 18.432 6.144 26.624 0l204.8-147.456 20.48 14.336c10.24 6.144 12.288 20.48 4.096 28.672l-4.096 4.096-223.232 161.792c-8.192 6.144-18.432 6.144-26.624 0l-223.232-161.792c-10.24-6.144-12.288-20.48-4.096-28.672-2.048 0-2.048-2.048 0-4.096z" fill="#ffffff" opacity=".94" p-id="23282" data-spm-anchor-id="a313x.search_index.0.i12.4b053a81pnfYFU" class=""></path></svg>